<svg width="30" height="28" viewBox="0 0 30 28" fill="none" xmlns="http://www.w3.org/2000/svg">
<path d="M23.5938 10.5625C25.4688 11.0833 27.0052 12.125 28.2031 13.6875C29.401 15.25 30 17.0208 30 19C30 21.3958 29.1406 23.4531 27.4219 25.1719C25.7031 26.8906 23.6458 27.75 21.25 27.75C18.75 27.75 16.6667 26.8646 15 25.0938C13.3333 26.8646 11.25 27.75 8.75 27.75C6.35417 27.75 4.29688 26.8906 2.57812 25.1719C0.859375 23.4531 0 21.3958 0 19C0 17.0208 0.598958 15.25 1.79688 13.6875C2.99479 12.125 4.53125 11.0833 6.40625 10.5625C6.30208 9.83333 6.25 9.3125 6.25 9C6.25 6.60417 7.10938 4.54688 8.82812 2.82812C10.5469 1.10938 12.6042 0.25 15 0.25C17.3958 0.25 19.4531 1.10938 21.1719 2.82812C22.8906 4.54688 23.75 6.60417 23.75 9C23.75 9.3125 23.6979 9.83333 23.5938 10.5625ZM7.5 9C7.5 9.625 7.52604 10.0677 7.57812 10.3281C7.83854 10.276 8.22917 10.25 8.75 10.25C11.25 10.25 13.3333 11.1354 15 12.9062C16.6667 11.1354 18.75 10.25 21.25 10.25C21.7708 10.25 22.1615 10.276 22.4219 10.3281C22.474 10.0677 22.5 9.625 22.5 9C22.5 6.91667 21.7708 5.14583 20.3125 3.6875C18.8542 2.22917 17.0833 1.5 15 1.5C12.9167 1.5 11.1458 2.22917 9.6875 3.6875C8.22917 5.14583 7.5 6.91667 7.5 9ZM16.25 19C16.25 18.375 16.224 17.9323 16.1719 17.6719C15.9115 17.724 15.5208 17.75 15 17.75C14.4792 17.75 14.0885 17.724 13.8281 17.6719C13.776 17.9323 13.75 18.375 13.75 19C13.75 20.5104 14.1667 21.8906 15 23.1406C15.8333 21.8906 16.25 20.5104 16.25 19ZM14.6094 16.5C14.7656 16.5 14.8958 16.5 15 16.5C15.1042 16.5 15.2344 16.5 15.3906 16.5C15.5469 16.4479 15.6771 16.4219 15.7812 16.4219C15.4688 15.6927 15.2083 15.1719 15 14.8594C14.7917 15.1719 14.5312 15.6927 14.2188 16.4219C14.3229 16.4219 14.4531 16.4479 14.6094 16.5ZM12.9688 16.1875C13.2812 15.25 13.6979 14.4688 14.2188 13.8438C12.6562 12.2812 10.8333 11.5 8.75 11.5C8.64583 11.5 8.51562 11.526 8.35938 11.5781C8.20312 11.5781 8.07292 11.5781 7.96875 11.5781C8.80208 13.974 10.4688 15.5104 12.9688 16.1875ZM15.7812 13.8438C16.3021 14.4688 16.7188 15.25 17.0312 16.1875C19.5312 15.5104 21.1979 13.974 22.0312 11.5781C21.9271 11.5781 21.7969 11.5781 21.6406 11.5781C21.4844 11.526 21.3542 11.5 21.25 11.5C19.1667 11.5 17.3438 12.2812 15.7812 13.8438ZM3.4375 24.3125C4.89583 25.7708 6.66667 26.5 8.75 26.5C10.8333 26.5 12.6562 25.7188 14.2188 24.1562C13.0729 22.5938 12.5 20.875 12.5 19C12.5 18.6875 12.5521 18.1667 12.6562 17.4375C9.6875 16.6042 7.70833 14.7292 6.71875 11.8125C5.15625 12.2292 3.85417 13.1146 2.8125 14.4688C1.77083 15.7708 1.25 17.2812 1.25 19C1.25 21.0833 1.97917 22.8542 3.4375 24.3125ZM15.7812 24.1562C17.3438 25.7188 19.1667 26.5 21.25 26.5C23.3333 26.5 25.1042 25.7708 26.5625 24.3125C28.0208 22.8542 28.75 21.0833 28.75 19C28.75 17.2812 28.2292 15.7708 27.1875 14.4688C26.1458 13.1146 24.8438 12.2292 23.2812 11.8125C22.2917 14.7292 20.3125 16.6042 17.3438 17.4375C17.4479 18.1667 17.5 18.6875 17.5 19C17.5 20.875 16.9271 22.5938 15.7812 24.1562Z" fill="#78CD13"/>
</svg>
