<svg width="147" height="34" viewBox="0 0 147 34" fill="none" xmlns="http://www.w3.org/2000/svg">
<g filter="url(#filter0_d)">
<path d="M38.1469 7.7031V7.86234H38.3062H38.3071H38.308H38.3089H38.3099H38.3108H38.3117H38.3127H38.3136H38.3145H38.3155H38.3165H38.3174H38.3184H38.3194H38.3203H38.3213H38.3223H38.3233H38.3243H38.3253H38.3263H38.3273H38.3283H38.3293H38.3303H38.3313H38.3324H38.3334H38.3344H38.3355H38.3365H38.3376H38.3386H38.3397H38.3408H38.3418H38.3429H38.344H38.3451H38.3461H38.3472H38.3483H38.3494H38.3505H38.3516H38.3528H38.3539H38.355H38.3561H38.3573H38.3584H38.3595H38.3607H38.3618H38.363H38.3641H38.3653H38.3665H38.3676H38.3688H38.37H38.3712H38.3723H38.3735H38.3747H38.3759H38.3771H38.3784H38.3796H38.3808H38.382H38.3832H38.3845H38.3857H38.3869H38.3882H38.3894H38.3907H38.392H38.3932H38.3945H38.3958H38.397H38.3983H38.3996H38.4009H38.4022H38.4035H38.4048H38.4061H38.4074H38.4087H38.41H38.4114H38.4127H38.414H38.4154H38.4167H38.4181H38.4194H38.4208H38.4221H38.4235H38.4249H38.4262H38.4276H38.429H38.4304H38.4318H38.4332H38.4346H38.436H38.4374H38.4388H38.4402H38.4416H38.4431H38.4445H38.4459H38.4474H38.4488H38.4503H38.4517H38.4532H38.4546H38.4561H38.4576H38.4591H38.4605H38.462H38.4635H38.465H38.4665H38.468H38.4695H38.471H38.4725H38.4741H38.4756H38.4771H38.4786H38.4802H38.4817H38.4833H38.4848H38.4864H38.4879H38.4895H38.4911H38.4926H38.4942H38.4958H38.4974H38.499H38.5006H38.5022H38.5038H38.5054H38.507H38.5086H38.5102H38.5119H38.5135H38.5151H38.5168H38.5184H38.5201H38.5217H38.5234H38.525H38.5267H38.5284H38.53H38.5317H38.5334H38.5351H38.5368H38.5385H38.5402H38.5419H38.5436H38.5453H38.547H38.5487H38.5505H38.5522H38.5539H38.5557H38.5574H38.5592H38.5609H38.5627H38.5645H38.5662H38.568H38.5698H38.5715H38.5733H38.5751H38.5769H38.5787H38.5805H38.5823H38.5841H38.586H38.5878H38.5896H38.5914H38.5933H38.5951H38.5969H38.5988H38.6006H38.6025H38.6044H38.6062H38.6081H38.61H38.6118H38.6137H38.6156H38.6175H38.6194H38.6213H38.6232H38.6251H38.627H38.6289H38.6309H38.6328H38.6347H38.6366H38.6386H38.6405H38.6425H38.6444H38.6464H38.6483H38.6503H38.6523H38.6543H38.6562H38.6582H38.6602H38.6622H38.6642H38.6662H38.6682H38.6702H38.6722H38.6742H38.6763H38.6783H38.6803H38.6824H38.6844H38.6864H38.6885H38.6906H38.6926H38.6947H38.6967H38.6988H38.7009H38.703H38.7051H38.7071H38.7092H38.7113H38.7134H38.7155H38.7177H38.7198H38.7219H38.724H38.7261H38.7283H38.7304H38.7326H38.7347H38.7369H38.739H38.7412H38.7433H38.7455H38.7477H38.7499H38.752H38.7542H38.7564H38.7586H38.7608H38.763H38.7652H38.7674H38.7696H38.7719H38.7741H38.7763H38.7786H38.7808H38.783H38.7853H38.7875H38.7898H38.7921H38.7943H38.7966H38.7989H38.8011H38.8034H38.8057H38.808H38.8103H38.8126H38.8149H38.8172H38.8195H38.8218H38.8242H38.8265H38.8288H38.8312H38.8335H38.8358H38.8382H38.8405H38.8429H38.8453H38.8476H38.85H38.8524H38.8548H38.8571H38.8595H38.8619H38.8643H38.8667H38.8691H38.8715H38.874H38.8764H38.8788H38.8812H38.8837H38.8861H38.8885H38.891H38.8934H38.8959H38.8983H38.9008H38.9033H38.9057H38.9082H38.9107H38.9132H38.9157H38.9182H38.9207H38.9232H38.9257H38.9282H38.9307H38.9332H38.9358H38.9383H38.9408H38.9434H38.9459H38.9484H38.951H38.9535H38.9561H38.9587H38.9612H38.9638H38.9664H38.969H38.9716H38.9741H38.9767H38.9793H38.9819H38.9846H38.9872H38.9898H38.9924H38.995H38.9977H39.0003H39.0029H39.0056H39.0082H39.0109H39.0135H39.0162H39.0189H39.0215H39.0242H39.0269H39.0296H39.0322H39.0349H39.0376H39.0403H39.043H39.0458H39.0485H39.0512H39.0539H39.0566H39.0594H39.0621H39.0648H39.0676H39.0703H39.0731H39.0758H39.0786H39.0814H39.0841H39.0869H39.0897H39.0925H39.0953H39.0981H39.1009H39.1037H39.1065H39.1093H39.1121H39.1149H39.1177H39.1206H39.1234H39.1262H39.1291H39.1319H39.1348H39.1376H39.1405H39.1433H39.1462H39.1491H39.1519H39.1548H39.1577H39.1606H39.1635H39.1664H39.1693H39.1722H39.1751H39.178H39.1809H39.1839H39.1868H39.1897H39.1927H39.1956H39.1985H39.2015H39.2045H39.2074H39.2104H39.2133H39.2163H39.2193H39.2223H39.2253H39.2282H39.2312H39.2342H39.2372H39.2402H39.2433H39.2463H39.2493H39.2523H39.2553H39.2584H39.2614H39.2645H39.2675H39.2706H39.2736H39.2767H39.2797H39.2828H39.2859H39.289H39.292H39.2951H39.2982H39.3013H39.3044H39.3075H39.3106H39.3137H39.3168H39.32H39.3231H39.3262H39.3294H39.3325H39.3356H39.3388H39.3419H39.3451H39.3482H39.3514C39.6097 7.86234 39.7739 7.9185 39.8721 8.00306C39.9658 8.08369 40.025 8.21233 40.025 8.41967C40.025 8.62956 39.9678 8.75849 39.88 8.83791C39.7891 8.9201 39.6371 8.9751 39.3947 8.9751H38.3062H38.1469V9.13434V18.7396C38.1469 18.9771 38.0855 19.1262 37.9902 19.2178C37.8937 19.3105 37.7348 19.3708 37.4835 19.3708C37.2489 19.3708 37.1024 19.3116 37.013 19.2209C36.9233 19.1297 36.8644 18.9795 36.8644 18.7396V9.13306V8.97382H36.7052H35.6377C35.4034 8.97382 35.2576 8.91881 35.1701 8.83643C35.0844 8.75576 35.0278 8.62326 35.0278 8.40693C35.0278 8.19106 35.0821 8.0611 35.1611 7.98459C35.2402 7.90788 35.3728 7.85698 35.5901 7.86229L35.5901 7.86234H35.594H36.7052H36.8644V7.7031V4.46259C36.8644 4.22328 36.9246 4.07266 37.0173 3.98064C37.1102 3.8884 37.2628 3.82818 37.5055 3.82818C37.7479 3.82818 37.9007 3.88838 37.9938 3.98071C38.0866 4.07279 38.1469 4.22342 38.1469 4.46259V7.7031Z" fill="black" stroke="black" stroke-width="0.318477"/>
<path d="M49.1272 8.48451L49.128 8.4852C49.9461 9.22068 50.3564 10.173 50.3561 11.3541V11.3541V18.7412C50.3561 18.9797 50.2964 19.1295 50.2051 19.2207C50.1138 19.312 49.9641 19.3714 49.7262 19.3714C49.495 19.3714 49.351 19.3125 49.2632 19.2223C49.1746 19.1313 49.1163 18.981 49.1163 18.7412V12.0388C49.1163 10.9664 48.8076 10.105 48.1733 9.469L48.173 9.46868C47.6019 8.89925 46.8983 8.61328 46.0755 8.61328C45.2519 8.61328 44.5436 8.89989 43.958 9.46706L43.958 9.46705L43.9561 9.46891C43.3084 10.1173 42.9917 10.9782 42.9917 12.0388V18.7412C42.9917 18.9799 42.9321 19.1296 42.841 19.2208C42.7499 19.3119 42.6002 19.3714 42.3617 19.3714C42.1311 19.3714 41.9872 19.3125 41.8992 19.222C41.8104 19.1306 41.7518 18.9796 41.7518 18.7383V4.50333C41.7518 4.24779 41.8113 4.08504 41.9022 3.98645C41.9908 3.89029 42.1339 3.82879 42.3617 3.82879C42.5977 3.82879 42.7462 3.89098 42.8378 3.98807C42.931 4.0869 42.9917 4.24959 42.9917 4.50556V8.92188V9.40012L43.2784 9.01734C44.0594 7.97455 45.1008 7.45721 46.4172 7.45721C47.4743 7.45721 48.3758 7.80013 49.1272 8.48451Z" fill="black" stroke="black" stroke-width="0.318477"/>
<path d="M53.6315 9.31564L53.6315 9.31565L53.6328 9.31387C54.5559 8.04364 55.7881 7.41449 57.3457 7.41449C58.8325 7.41449 59.9888 7.88125 60.837 8.80363C61.685 9.72884 62.1178 10.9859 62.1178 12.5926C62.1178 13.1638 62.0713 13.5758 61.9864 13.8399C61.8993 14.1106 61.7972 14.1622 61.7212 14.1624C61.7212 14.1624 61.7211 14.1624 61.721 14.1624L53.9734 14.1624H53.8141V14.3216C53.8141 15.3782 54.2058 16.3454 54.9769 17.2248L54.977 17.2248C55.7512 18.107 56.6518 18.5593 57.6757 18.5593C58.2898 18.5593 58.8862 18.395 59.4639 18.0702C59.7477 17.9212 60.1575 17.6334 60.6837 17.2238L60.6838 17.2238L60.6862 17.2218C60.8756 17.0682 61.0339 16.9565 61.1623 16.8839C61.2953 16.8088 61.3779 16.7863 61.421 16.7863C61.5866 16.7863 61.7306 16.8505 61.8607 16.9915L61.9777 16.8835L61.8604 16.9911C61.995 17.1378 62.0541 17.2861 62.0541 17.4379C62.0541 17.5758 62.0146 17.6792 61.9438 17.7599L61.9436 17.7597L61.9383 17.7664C60.9633 19.002 59.555 19.6262 57.6884 19.6262C55.9832 19.6262 54.6435 18.9944 53.6508 17.724C52.7797 16.6046 52.3396 15.2093 52.3396 13.5318C52.3396 11.8687 52.7716 10.465 53.6315 9.31564ZM53.8142 12.6963L53.8105 12.8592H53.9734H60.6764H60.8356V12.6999C60.8356 11.4182 60.4834 10.3869 59.7644 9.62397C59.1197 8.93563 58.3219 8.59254 57.3785 8.59254C56.4351 8.59254 55.6236 8.9354 54.9514 9.62157L54.9514 9.62155L54.9496 9.62346C54.2167 10.3967 53.8429 11.4287 53.8142 12.6963Z" fill="black" stroke="black" stroke-width="0.318477"/>
<path d="M71.4027 9.38178L71.5299 9.6166L71.676 9.39315C72.5417 8.06978 73.743 7.41485 75.2989 7.41485C76.3418 7.41485 77.2303 7.73812 77.9666 8.38109C78.744 9.06551 79.1305 9.94794 79.1308 11.0458C79.1308 11.0458 79.1308 11.0458 79.1308 11.0459V18.7167C79.1308 18.9485 79.0718 19.0932 78.9815 19.1814C78.8905 19.2703 78.7404 19.3288 78.5009 19.3288C78.2522 19.3288 78.096 19.2701 78.0016 19.1808C77.909 19.093 77.849 18.9498 77.849 18.7195V11.7608C77.849 10.8324 77.5813 10.0841 77.034 9.53405C76.5477 9.03504 75.9374 8.78208 75.2145 8.78208C74.3852 8.78208 73.6699 9.08494 73.0723 9.68185C72.3984 10.3397 72.0635 11.2153 72.0635 12.2869V18.6969C72.0635 18.9383 72.0052 19.0883 71.9171 19.1788C71.8298 19.2684 71.6865 19.3269 71.4558 19.3269C71.2165 19.3269 71.067 19.2669 70.9761 19.1756C70.8851 19.0841 70.8259 18.9339 70.8259 18.6953V11.721C70.8259 10.806 70.5581 10.0623 70.0101 9.5144L70.0101 9.51439L70.0086 9.5129C69.5077 9.02526 68.8905 8.78176 68.1669 8.78176C67.3434 8.78176 66.6278 9.07803 66.0282 9.66091L66.0282 9.66089L66.0265 9.6626C65.366 10.3244 65.0417 11.1977 65.0417 12.256V18.696C65.0417 18.9353 64.9834 19.0864 64.8945 19.1782C64.8066 19.2691 64.6627 19.3284 64.4328 19.3284C64.1937 19.3284 64.0439 19.2689 63.9526 19.1777C63.8614 19.0865 63.8019 18.9367 63.8019 18.6979V8.1948C63.8019 7.90008 63.8638 7.70842 63.9603 7.59224C64.052 7.48171 64.1958 7.41485 64.422 7.41485C64.658 7.41485 64.8046 7.48229 64.8951 7.59018C64.9897 7.70292 65.0485 7.8895 65.0418 8.179L65.0417 8.179V8.1827V8.94131V9.43397L65.3301 9.03452C66.1143 7.94811 67.1066 7.41485 68.3166 7.41485C68.994 7.41485 69.5852 7.57857 70.0949 7.90227C70.6054 8.22646 71.0426 8.71656 71.4027 9.38178Z" fill="black" stroke="black" stroke-width="0.318477"/>
<path d="M82.4052 9.31558L82.4053 9.31558L82.4064 9.31401C83.3318 8.04362 84.5635 7.41449 86.1223 7.41449C87.6079 7.41449 88.7642 7.8813 89.6115 8.80372C90.4606 9.72888 90.8931 10.9859 90.8931 12.5926C90.8931 13.1637 90.8464 13.5756 90.761 13.8396C90.6736 14.1097 90.5709 14.1622 90.4931 14.1624C90.493 14.1624 90.4929 14.1624 90.4929 14.1624L82.7465 14.1624H82.5872V14.3216C82.5872 15.3783 82.9809 16.3455 83.7516 17.2247L83.7516 17.2248C84.5253 18.1069 85.4243 18.5593 86.4501 18.5593C87.0637 18.5593 87.6623 18.3951 88.2383 18.0702C88.5222 17.9211 88.9319 17.6334 89.4576 17.2237L89.4576 17.2237L89.4598 17.2219C89.6498 17.0682 89.808 16.9565 89.9363 16.8839C90.0691 16.8089 90.1518 16.7863 90.196 16.7863C90.3594 16.7863 90.504 16.8503 90.6356 16.9913C90.7689 17.138 90.8278 17.2863 90.8278 17.4379C90.8278 17.576 90.7886 17.6794 90.7178 17.7599L90.7176 17.7597L90.7124 17.7663C89.7367 19.002 88.329 19.6262 86.4625 19.6262C84.7575 19.6262 83.4167 18.9943 82.4272 17.7241L82.4271 17.7241C81.5538 16.6047 81.1133 15.2093 81.1133 13.5318C81.1133 11.8687 81.5463 10.465 82.4052 9.31558ZM82.5873 12.6963L82.5835 12.8592H82.7465H89.4504H89.6097V12.6999C89.6097 11.4183 89.2578 10.387 88.5382 9.62406C87.896 8.9355 87.0976 8.59254 86.1529 8.59254C85.2087 8.59254 84.3989 8.93545 83.7261 9.62151L83.7261 9.6215L83.7243 9.62341C82.9908 10.3966 82.6167 11.4286 82.5873 12.6963Z" fill="black" stroke="black" stroke-width="0.318477"/>
<path d="M95.491 5.20621L95.491 5.20621L95.491 5.20621ZM95.491 5.20621C95.2474 5.3215 95.1267 5.6473 95.1267 6.18998M95.491 5.20621L95.1267 6.18998M95.1267 6.18998V7.52409V6.18998ZM93.5696 7.84225H93.7289V7.68301V5.63265C93.7289 4.99914 93.8691 4.55299 94.1216 4.26618C94.3706 3.98323 94.7527 3.82879 95.2983 3.82879H96.6863C96.9836 3.82879 97.1763 3.88847 97.2923 3.98093C97.4012 4.0678 97.4661 4.20285 97.4656 4.41694V4.41734C97.4656 4.6137 97.4031 4.7379 97.2952 4.81929C97.1788 4.90709 96.9846 4.96417 96.6853 4.96417C96.3499 4.96417 96.0791 4.97127 95.8747 4.98553C95.7725 4.99266 95.6849 5.00171 95.613 5.01298C95.5437 5.02384 95.4791 5.0382 95.4286 5.05974L95.4285 5.05962L95.4229 5.06228C95.2534 5.14248 95.1389 5.29166 95.0682 5.48252C94.9984 5.67096 94.9674 5.90911 94.9674 6.18998V7.68333V7.84257H95.1267H95.128H95.1293H95.1307H95.132H95.1334H95.1347H95.1361H95.1375H95.1388H95.1402H95.1416H95.143H95.1444H95.1458H95.1472H95.1486H95.15H95.1514H95.1528H95.1542H95.1557H95.1571H95.1586H95.16H95.1615H95.1629H95.1644H95.1659H95.1673H95.1688H95.1703H95.1718H95.1733H95.1748H95.1763H95.1778H95.1793H95.1808H95.1824H95.1839H95.1854H95.187H95.1885H95.1901H95.1916H95.1932H95.1948H95.1964H95.1979H95.1995H95.2011H95.2027H95.2043H95.2059H95.2075H95.2092H95.2108H95.2124H95.214H95.2157H95.2173H95.219H95.2206H95.2223H95.2239H95.2256H95.2273H95.229H95.2307H95.2323H95.234H95.2357H95.2375H95.2392H95.2409H95.2426H95.2443H95.2461H95.2478H95.2496H95.2513H95.2531H95.2548H95.2566H95.2583H95.2601H95.2619H95.2637H95.2655H95.2673H95.2691H95.2709H95.2727H95.2745H95.2763H95.2782H95.28H95.2818H95.2837H95.2855H95.2874H95.2892H95.2911H95.293H95.2949H95.2967H95.2986H95.3005H95.3024H95.3043H95.3062H95.3081H95.31H95.312H95.3139H95.3158H95.3178H95.3197H95.3217H95.3236H95.3256H95.3275H95.3295H95.3315H95.3335H95.3354H95.3374H95.3394H95.3414H95.3434H95.3455H95.3475H95.3495H95.3515H95.3536H95.3556H95.3576H95.3597H95.3617H95.3638H95.3659H95.3679H95.37H95.3721H95.3742H95.3763H95.3784H95.3805H95.3826H95.3847H95.3868H95.3889H95.391H95.3932H95.3953H95.3975H95.3996H95.4018H95.4039H95.4061H95.4082H95.4104H95.4126H95.4148H95.417H95.4192H95.4214H95.4236H95.4258H95.428H95.4302H95.4325H95.4347H95.4369H95.4392H95.4414H95.4437H95.4459H95.4482H95.4505H95.4527H95.455H95.4573H95.4596H95.4619H95.4642H95.4665H95.4688H95.4711H95.4734H95.4758H95.4781H95.4804H95.4828H95.4851H95.4875H95.4898H95.4922H95.4946H95.4969H95.4993H95.5017H95.5041H95.5065H95.5089H95.5113H95.5137H95.5161H95.5185H95.521H95.5234H95.5258H95.5283H95.5307H95.5332H95.5356H95.5381H95.5406H95.543H95.5455H95.548H95.5505H95.553H95.5555H95.558H95.5605H95.563H95.5655H95.568H95.5706H95.5731H95.5756H95.5782H95.5807H95.5833H95.5859H95.5884H95.591H95.5936H95.5962H95.5988H95.6013H95.6039H95.6065H95.6092H95.6118H95.6144H95.617H95.6196H95.6223H95.6249H95.6276H95.6302H95.6329H95.6355H95.6382H95.6409H95.6435H95.6462H95.6489H95.6516H95.6543H95.657H95.6597H95.6624H95.6652H95.6679H95.6706H95.6733H95.6761H95.6788H95.6816H95.6843H95.6871H95.6899H95.6926H95.6954H95.6982H95.701H95.7038H95.7066H95.7094H95.7122H95.715H95.7178H95.7206H95.7234H95.7263H95.7291H95.732H95.7348H95.7377H95.7405H95.7434H95.7463H95.7491H95.752H95.7549H95.7578H95.7607H95.7636H95.7665H95.7694H95.7723H95.7752H95.7782H95.7811H95.784H95.787H95.7899H95.7929H95.7958H95.7988H95.8018H95.8048H95.8077H95.8107H95.8137H95.8167H95.8197H95.8227H95.8257H95.8287H95.8318H95.8348H95.8378H95.8408H95.8439H95.8469H95.85H95.853H95.8561H95.8592H95.8622H95.8653H95.8684H95.8715H95.8746H95.8777H95.8808H95.8839H95.887H95.8901H95.8933H95.8964H95.8995H95.9027H95.9058H95.909H95.9121H95.9153H95.9185H95.9216H95.9248H95.928H95.9312H95.9344H95.9376H95.9408H95.944H95.9472H95.9504H95.9536H95.9569H95.9601H95.9633H95.9666H95.9698H95.9731H95.9763H95.9796H95.9829H95.9862H95.9894H95.9927H95.996H95.9993H96.0026H96.0059H96.0092H96.0126H96.0159H96.0192H96.0225H96.0259H96.0292H96.0326H96.0359H96.0393H96.0426H96.046H96.0494H96.0528H96.0562H96.0595H96.0629H96.0663H96.0697H96.0732H96.0766H96.08H96.0834H96.0869H96.0903H96.0937H96.0972H96.1006H96.1041H96.1076H96.111H96.1145H96.118H96.1215H96.1249H96.1284H96.1319H96.1354H96.139H96.1425H96.146H96.1495H96.153H96.1566H96.1601H96.1637H96.1672H96.1708H96.1743H96.1779H96.1815H96.185H96.1886H96.1922H96.1958H96.1994H96.203H96.2066H96.2102H96.2139H96.2175H96.2211H96.2247H96.2284H96.232H96.2357H96.2393H96.243H96.2467H96.2503H96.254H96.2577H96.2614H96.2651H96.2688H96.2725H96.2762H96.2799H96.2836H96.2873H96.291H96.2948H96.2985H96.3023H96.306H96.3098H96.3135H96.3173H96.321H96.3248H96.3286H96.3324H96.3362H96.34H96.3438H96.3476H96.3514H96.3552H96.359H96.3628H96.3667H96.3705H96.3744H96.3782H96.3821H96.3859H96.3898H96.3936H96.3975H96.4014H96.4053H96.4092H96.413H96.4169H96.4209H96.4248H96.4287H96.4326H96.4365H96.4404H96.4444H96.4483H96.4523H96.4562H96.4602H96.4641H96.4681H96.4721H96.476H96.48H96.484H96.488H96.492C96.7648 7.84257 96.9391 7.9033 97.0445 7.99702C97.1463 8.08755 97.2102 8.23268 97.2102 8.46423C97.2102 8.69885 97.1435 8.84754 97.0352 8.9413C96.9225 9.03887 96.7368 9.1015 96.4496 9.1015H95.128H94.9687V9.26074V18.7389C94.9687 18.9789 94.9091 19.1292 94.8179 19.2206C94.7268 19.3119 94.5773 19.3714 94.3388 19.3714C94.1075 19.3714 93.9636 19.3125 93.8758 19.2221C93.7872 19.1309 93.7289 18.9801 93.7289 18.7389V9.2617V9.10246H93.5696H92.5661C92.2938 9.10246 92.1196 9.04327 92.0147 8.95248C91.9142 8.86552 91.8515 8.72687 91.8515 8.505C91.8515 8.25762 91.9166 8.10113 92.0196 8.00423C92.1245 7.90559 92.2966 7.84225 92.5661 7.84225H93.5696Z" fill="black" stroke="black" stroke-width="0.318477"/>
<path d="M100.541 16.8779L100.541 16.8779C99.9551 15.8817 99.6681 14.7078 99.6681 13.3612C99.6681 12.0587 99.9419 10.958 100.501 10.0748C100.501 10.0748 100.501 10.0747 100.501 10.0747L100.541 16.8779ZM100.541 16.8779L100.542 16.8797M100.541 16.8779L100.542 16.8797M100.542 16.8797C101.201 17.9696 102.084 18.5374 103.188 18.5374C104.337 18.5374 105.235 18.0304 105.874 17.0346C106.448 16.1627 106.73 15.0764 106.732 13.7888V13.7886M100.542 16.8797L106.732 13.7886M106.732 13.7886C106.732 12.4265 106.427 11.2353 105.814 10.2251L106.732 13.7886ZM99.4409 17.7094L99.4407 17.7091C98.6116 16.5726 98.192 15.1767 98.192 13.5122C98.192 11.8445 98.6116 10.4493 99.4405 9.31447C100.361 8.06201 101.61 7.43561 103.199 7.43561C104.753 7.43561 105.993 8.07946 106.93 9.37787L106.931 9.37842C107.778 10.542 108.203 11.9682 108.203 13.6618C108.203 15.2971 107.784 16.6621 106.955 17.7703L106.955 17.771C106.047 18.9976 104.801 19.6068 103.199 19.6068C101.609 19.6068 100.361 18.9761 99.4409 17.7094Z" fill="black" stroke="black" stroke-width="0.318477"/>
<path d="M111.384 9.62697V10.1855L111.679 9.71094C112.165 8.92761 112.632 8.34992 113.077 7.96962C113.523 7.58942 113.935 7.41546 114.317 7.41546C114.591 7.41546 114.818 7.50691 115.01 7.69283L115.01 7.69326C115.197 7.8729 115.293 8.10145 115.293 8.38905C115.293 8.50984 115.237 8.63585 115.089 8.76858C114.94 8.90347 114.704 9.03607 114.373 9.16101C113.458 9.50372 112.814 9.8324 112.462 10.1532L112.462 10.1536C111.734 10.8213 111.384 11.8121 111.384 13.0946V18.6972C111.384 18.9386 111.326 19.0896 111.237 19.1808C111.15 19.2711 111.007 19.33 110.776 19.33C110.538 19.33 110.387 19.2704 110.296 19.179C110.204 19.0877 110.144 18.938 110.144 18.6997V8.15369C110.144 7.87388 110.206 7.69448 110.302 7.58589C110.395 7.48104 110.543 7.4161 110.776 7.4161C111.003 7.4161 111.145 7.47856 111.233 7.57706C111.325 7.67888 111.384 7.84728 111.384 8.11102V9.62697Z" fill="black" stroke="black" stroke-width="0.318477"/>
<path d="M117.053 9.31556L117.053 9.31555C116.194 10.4649 115.761 11.8687 115.761 13.5318C115.761 15.2095 116.2 16.6049 117.072 17.7242C118.064 18.9944 119.404 19.6262 121.109 19.6262C122.976 19.6262 124.386 19.0019 125.36 17.7664L125.365 17.7601L125.365 17.7602C125.435 17.6796 125.474 17.5761 125.474 17.4379C125.474 17.286 125.416 17.1381 125.28 16.992L125.279 16.9911C125.15 16.8502 125.008 16.7863 124.842 16.7863C124.798 16.7863 124.716 16.8088 124.583 16.8839C124.455 16.9565 124.296 17.0683 124.106 17.222L124.104 17.2239L124.104 17.2239C123.577 17.633 123.169 17.9211 122.884 18.0703C122.306 18.395 121.71 18.5593 121.096 18.5593C120.073 18.5593 119.171 18.107 118.398 17.2248L117.053 9.31556ZM117.053 9.31556L117.054 9.3137C117.975 8.04374 119.21 7.41449 120.767 7.41449C122.252 7.41449 123.408 7.88132 124.254 8.80369L124.365 8.70231M117.053 9.31556L124.365 8.70231M124.365 8.70231L124.254 8.8037C125.103 9.72888 125.536 10.9859 125.536 12.5926C125.536 13.1638 125.49 13.5759 125.406 13.8401C125.319 14.1113 125.217 14.1623 125.142 14.1624H117.394H117.235M124.365 8.70231L117.235 14.1624M117.235 14.1624V14.3216M117.235 14.1624V14.3216M117.235 14.3216C117.235 15.3779 117.625 16.3452 118.398 17.2247L117.235 14.3216ZM117.235 12.6962L117.231 12.8592L123.07 9.733L123.186 9.62404C123.186 9.62402 123.186 9.62401 123.186 9.62399C122.54 8.93568 121.741 8.59254 120.799 8.59254C119.856 8.59254 119.043 8.93534 118.37 9.62154L118.37 9.62152L118.368 9.62354C117.636 10.3968 117.264 11.4288 117.235 12.6962Z" fill="black" stroke="black" stroke-width="0.318477"/>
<path d="M132.34 14.3699L132.34 14.3699L132.337 14.3683C131.271 13.885 130.213 13.4051 129.164 12.9205C128.059 12.2709 127.541 11.4912 127.541 10.5865C127.541 9.51841 127.917 8.72329 128.652 8.1722C129.301 7.68589 130.151 7.43585 131.223 7.43585C132.73 7.43585 133.964 7.8472 134.94 8.65798C135.133 8.8292 135.227 9.03487 135.227 9.28429C135.227 9.54362 135.173 9.70866 135.092 9.80692C135.016 9.89923 134.897 9.9566 134.704 9.9566C134.582 9.9566 134.45 9.91974 134.296 9.82865C133.139 9.07946 131.964 8.69797 130.778 8.69797C130.207 8.69797 129.75 8.82897 129.435 9.11969C129.118 9.41265 128.973 9.84188 128.973 10.3767C128.973 10.6745 129.161 10.9514 129.462 11.2077C129.767 11.4671 130.214 11.7292 130.796 11.9964C132.607 12.8411 133.66 13.3609 133.977 13.5676C135.102 14.3193 135.635 15.1604 135.633 16.0875V16.0879C135.633 17.2097 135.213 18.0798 134.371 18.7182C133.591 19.2952 132.624 19.587 131.457 19.587C129.685 19.587 128.347 19.0371 127.417 17.9567C127.285 17.8016 127.221 17.6182 127.221 17.3965C127.221 17.1734 127.283 16.9739 127.413 16.7957C127.541 16.62 127.672 16.5535 127.808 16.5535C127.938 16.5535 128.08 16.6235 128.234 16.8276C128.53 17.2344 129.052 17.5832 129.771 17.8949L129.771 17.8951C130.5 18.2081 131.212 18.3657 131.906 18.3657C132.611 18.3657 133.169 18.2024 133.551 17.8479C133.936 17.4913 134.114 16.967 134.114 16.3058C134.114 15.5514 133.467 14.9125 132.34 14.3699Z" fill="black" stroke="black" stroke-width="0.318477"/>
<path d="M140.458 7.7031V7.86234H140.618H140.619H140.619H140.62H140.621H140.622H140.623H140.624H140.625H140.626H140.627H140.628H140.629H140.63H140.631H140.632H140.633H140.634H140.635H140.636H140.637H140.638H140.639H140.64H140.641H140.642H140.643H140.644H140.645H140.646H140.647H140.648H140.649H140.65H140.651H140.652H140.653H140.654H140.655H140.657H140.658H140.659H140.66H140.661H140.662H140.663H140.664H140.665H140.666H140.668H140.669H140.67H140.671H140.672H140.673H140.674H140.676H140.677H140.678H140.679H140.68H140.681H140.683H140.684H140.685H140.686H140.687H140.689H140.69H140.691H140.692H140.693H140.695H140.696H140.697H140.698H140.7H140.701H140.702H140.703H140.705H140.706H140.707H140.708H140.71H140.711H140.712H140.714H140.715H140.716H140.717H140.719H140.72H140.721H140.723H140.724H140.725H140.727H140.728H140.729H140.731H140.732H140.733H140.735H140.736H140.738H140.739H140.74H140.742H140.743H140.744H140.746H140.747H140.749H140.75H140.752H140.753H140.754H140.756H140.757H140.759H140.76H140.762H140.763H140.764H140.766H140.767H140.769H140.77H140.772H140.773H140.775H140.776H140.778H140.779H140.781H140.782H140.784H140.785H140.787H140.788H140.79H140.791H140.793H140.795H140.796H140.798H140.799H140.801H140.802H140.804H140.805H140.807H140.809H140.81H140.812H140.813H140.815H140.817H140.818H140.82H140.821H140.823H140.825H140.826H140.828H140.83H140.831H140.833H140.835H140.836H140.838H140.84H140.841H140.843H140.845H140.846H140.848H140.85H140.851H140.853H140.855H140.856H140.858H140.86H140.862H140.863H140.865H140.867H140.869H140.87H140.872H140.874H140.876H140.877H140.879H140.881H140.883H140.884H140.886H140.888H140.89H140.892H140.893H140.895H140.897H140.899H140.901H140.903H140.904H140.906H140.908H140.91H140.912H140.914H140.915H140.917H140.919H140.921H140.923H140.925H140.927H140.929H140.93H140.932H140.934H140.936H140.938H140.94H140.942H140.944H140.946H140.948H140.95H140.952H140.954H140.956H140.957H140.959H140.961H140.963H140.965H140.967H140.969H140.971H140.973H140.975H140.977H140.979H140.981H140.983H140.985H140.987H140.989H140.991H140.993H140.995H140.998H141H141.002H141.004H141.006H141.008H141.01H141.012H141.014H141.016H141.018H141.02H141.022H141.024H141.027H141.029H141.031H141.033H141.035H141.037H141.039H141.041H141.044H141.046H141.048H141.05H141.052H141.054H141.057H141.059H141.061H141.063H141.065H141.067H141.07H141.072H141.074H141.076H141.078H141.081H141.083H141.085H141.087H141.09H141.092H141.094H141.096H141.099H141.101H141.103H141.105H141.108H141.11H141.112H141.114H141.117H141.119H141.121H141.124H141.126H141.128H141.131H141.133H141.135H141.138H141.14H141.142H141.145H141.147H141.149H141.152H141.154H141.156H141.159H141.161H141.163H141.166H141.168H141.171H141.173H141.175H141.178H141.18H141.183H141.185H141.187H141.19H141.192H141.195H141.197H141.2H141.202H141.205H141.207H141.209H141.212H141.214H141.217H141.219H141.222H141.224H141.227H141.229H141.232H141.234H141.237H141.239H141.242H141.244H141.247H141.249H141.252H141.254H141.257H141.26H141.262H141.265H141.267H141.27H141.272H141.275H141.278H141.28H141.283H141.285H141.288H141.291H141.293H141.296H141.298H141.301H141.304H141.306H141.309H141.312H141.314H141.317H141.319H141.322H141.325H141.327H141.33H141.333H141.335H141.338H141.341H141.344H141.346H141.349H141.352H141.354H141.357H141.36H141.362H141.365H141.368H141.371H141.373H141.376H141.379H141.382H141.384H141.387H141.39H141.393H141.395H141.398H141.401H141.404H141.407H141.409H141.412H141.415H141.418H141.421H141.423H141.426H141.429H141.432H141.435H141.438H141.441H141.443H141.446H141.449H141.452H141.455H141.458H141.461H141.463H141.466H141.469H141.472H141.475H141.478H141.481H141.484H141.487H141.49H141.493H141.495H141.498H141.501H141.504H141.507H141.51H141.513H141.516H141.519H141.522H141.525H141.528H141.531H141.534H141.537H141.54H141.543H141.546H141.549H141.552H141.555H141.558H141.561H141.564H141.567H141.57H141.573H141.576H141.579H141.582H141.585H141.589H141.592H141.595H141.598H141.601H141.604H141.607H141.61H141.613H141.616H141.619H141.623H141.626H141.629H141.632H141.635H141.638H141.641H141.645H141.648H141.651H141.654H141.657H141.66H141.664C141.921 7.86234 142.086 7.9184 142.185 8.0032C142.28 8.08405 142.34 8.21284 142.34 8.41992C142.34 8.62938 142.283 8.75823 142.195 8.83772C142.103 8.92008 141.95 8.9751 141.708 8.9751H140.619H140.46V9.13434V18.7396C140.46 18.9771 140.399 19.1262 140.303 19.2177C140.207 19.3105 140.048 19.3708 139.796 19.3708C139.561 19.3708 139.414 19.3116 139.325 19.2208C139.235 19.1297 139.176 18.9795 139.176 18.7396V9.13306V8.97382H139.017H137.949C137.716 8.97382 137.57 8.91888 137.483 8.83654C137.397 8.75584 137.341 8.62327 137.341 8.40693C137.341 8.19057 137.395 8.06077 137.473 7.98446C137.552 7.90802 137.684 7.85697 137.904 7.86229L137.904 7.86234H137.908H139.017H139.176V7.7031V4.46259C139.176 4.22342 139.237 4.07282 139.329 3.98076C139.423 3.88842 139.576 3.82818 139.819 3.82818C140.061 3.82818 140.213 3.88838 140.306 3.98054C140.398 4.07254 140.458 4.22318 140.458 4.46259V7.7031Z" fill="black" stroke="black" stroke-width="0.318477"/>
<path d="M31.4229 13.7608C31.4282 13.7671 31.433 13.772 31.4363 13.7752L31.4727 13.8202L31.5369 13.8278C31.8694 13.8675 32.2751 13.9453 32.6276 14.0987C32.9816 14.2528 33.259 14.4728 33.3755 14.7839C33.4569 15.0019 33.4449 15.2381 33.3393 15.4531L33.339 15.4537C33.2384 15.6611 33.0498 15.8421 32.8186 15.9955C32.5888 16.148 32.3287 16.2657 32.1014 16.3509L32.0471 16.3713L32.0186 16.4219C31.9712 16.5061 31.919 16.5874 31.8655 16.6707L31.8609 16.6779C31.8107 16.7559 31.7589 16.8368 31.7142 16.9176C31.656 16.9829 31.6311 17.0558 31.6196 17.1187L31.5942 17.2561L31.7272 17.299C32.1116 17.4231 32.4249 17.6158 32.5377 17.9195L32.5381 17.9206C32.602 18.0888 32.593 18.2729 32.5107 18.4403L32.5104 18.441C32.4249 18.6168 32.2598 18.7697 32.0566 18.8982C31.8551 19.0256 31.6295 19.1207 31.4419 19.1864L31.3857 19.2062L31.3562 19.258C31.3239 19.3148 31.2912 19.3701 31.2551 19.4257L31.223 19.475L31.2307 19.5334C31.244 19.6337 31.2517 19.7356 31.258 19.8437L31.2627 19.9257L31.3323 19.9694C31.4809 20.0627 31.5872 20.1721 31.6382 20.308L31.6385 20.3087C31.6882 20.4391 31.6813 20.5841 31.6172 20.7152L31.6171 20.7154C31.5227 20.9092 31.3027 21.0693 31.0558 21.1915L31.0083 21.215L30.9844 21.2624C30.9287 21.3724 30.8632 21.4801 30.7852 21.5905L30.6984 21.7135L30.8164 21.807C30.9135 21.8841 30.9856 21.973 31.0257 22.0801C31.0746 22.2107 31.0681 22.3534 31.0032 22.488C30.9421 22.6131 30.8279 22.7258 30.6819 22.824C30.5369 22.9215 30.3711 22.9977 30.2223 23.0537L30.1877 23.0667L30.1624 23.0935C29.477 23.8215 28.3649 24.2837 26.2473 24.6503L26.2464 24.6504L25.6069 24.7648L25.6069 24.7648L25.5898 24.7678C23.8406 25.0809 21.2237 25.5492 18.6941 25.5492C15.3643 25.5492 13.0293 24.7086 11.7049 23.0985C11.589 22.9573 11.4854 22.8069 11.3832 22.6497L11.3361 22.5772H11.2497H6.06582C5.28859 22.5772 4.65942 21.9477 4.65942 21.1695V1.85868C4.65942 1.08139 5.28903 0.450376 6.06582 0.450376H25.3776C26.1547 0.450376 26.7846 1.082 26.7847 1.85823C26.7847 1.85828 26.7847 1.85832 26.7847 1.85836L26.7758 12.9021L26.7756 13.0796L26.9521 13.0605C27.602 12.9904 28.2641 12.9563 28.7529 12.9563C30.1045 12.9563 30.9079 13.2156 31.4176 13.7543C31.4193 13.7565 31.4211 13.7587 31.4229 13.7608ZM31.3886 19.5125C31.4271 19.4533 31.4615 19.395 31.4946 19.3367L26.9439 1.85836C26.9439 0.994332 26.2429 0.291138 25.3776 0.291138H6.06582C5.20083 0.291138 4.50018 0.993697 4.50018 1.85868V21.1695C4.50018 22.0355 5.20051 22.7365 6.06582 22.7365H11.2497C11.3532 22.8957 11.4605 23.0517 11.5818 23.1995C12.95 24.8629 15.3431 25.7085 18.6941 25.7085C21.2379 25.7085 23.8661 25.2381 25.6136 24.9253L25.635 24.9215L26.2745 24.8072C28.3974 24.4397 29.5551 23.9709 30.2784 23.2027C30.5898 23.0855 30.9905 22.8775 31.1465 22.5575C31.2297 22.3852 31.2395 22.1973 31.1749 22.0243C31.1223 21.8839 31.0293 21.7727 30.9153 21.6823C30.9972 21.5664 31.0669 21.452 31.1265 21.3342C31.3806 21.2084 31.6418 21.0285 31.7602 20.7851C31.843 20.6157 31.8532 20.4249 31.7873 20.252C31.7198 20.0721 31.5828 19.9386 31.4169 19.8345C31.4106 19.7249 31.4026 19.6186 31.3886 19.5125ZM31.1693 16.6353L31.2266 16.6267L30.9096 14.4055C30.7399 14.224 30.4275 14.0956 30.0545 14.001C29.6725 13.9041 29.1944 13.8352 28.6607 13.7937C27.5927 13.7104 26.2851 13.7352 25.0426 13.8726L25.0426 13.8726L25.0385 13.8731C24.0066 14.0142 22.1265 14.2987 20.1231 14.7416C20.439 14.6419 20.7893 14.5381 21.1751 14.4322L21.1592 14.1216L19.4446 13.8355C19.8441 13.8062 20.2841 13.8068 20.7224 13.8252C21.5361 13.8593 22.3229 13.9535 22.7895 14.017L22.8178 14.0208L22.8455 14.0147C23.6888 13.8274 24.6468 13.6398 25.7272 13.4681L25.8614 13.4467V13.3108V4.47115V4.31191H25.7022C25.1688 4.31191 24.1557 4.57278 22.9222 5.09255C21.6817 5.6153 20.1993 6.40795 18.7228 7.4894C15.7708 9.65153 12.83 12.9777 11.91 17.6204L11.91 17.6204C11.4497 19.9462 11.8414 21.5647 12.7934 22.6547C13.7397 23.7384 15.2118 24.2666 16.8417 24.479C19.7853 24.8625 23.3407 24.2257 25.5326 23.8332C25.7661 23.7913 25.9841 23.7523 26.1842 23.7176L26.1574 23.5633L26.1842 23.7176C28.0295 23.3971 29.034 22.9676 29.5815 22.5719C30.136 22.1711 30.2266 21.8001 30.2306 21.6198L30.2342 21.4527L30.0671 21.4572L30.0241 21.4583L30.4153 21.3444L30.475 21.327L30.5072 21.2736C30.7667 20.8425 30.7777 20.3863 30.7279 20.0492L30.7098 19.9259L30.5858 19.9139L29.9637 19.8536L30.4786 19.7853L30.6793 19.7587L30.6186 19.6019C31.5424 18.672 31.3844 17.6041 31.2001 17.0398L31.1683 16.9423L31.0664 16.931L29.9859 16.8108L31.1693 16.6353Z" fill="black" stroke="black" stroke-width="0.318477"/>
</g>
<defs>
<filter id="filter0_d" x="0" y="0" width="147" height="34" filterUnits="userSpaceOnUse" color-interpolation-filters="sRGB">
<feFlood flood-opacity="0" result="BackgroundImageFix"/>
<feColorMatrix in="SourceAlpha" type="matrix" values="0 0 0 0 0 0 0 0 0 0 0 0 0 0 0 0 0 0 127 0"/>
<feOffset dy="4"/>
<feGaussianBlur stdDeviation="2"/>
<feColorMatrix type="matrix" values="0 0 0 0 0 0 0 0 0 0 0 0 0 0 0 0 0 0 0.25 0"/>
<feBlend mode="normal" in2="BackgroundImageFix" result="effect1_dropShadow"/>
<feBlend mode="normal" in="SourceGraphic" in2="effect1_dropShadow" result="shape"/>
</filter>
</defs>
</svg>
