<svg width="147" height="34" viewBox="0 0 147 34" fill="none" xmlns="http://www.w3.org/2000/svg">
    <g filter="url(#filter0_d)">
        <mask id="path-1-inside-1" fill="white">
            <path d="M39.3514 7.7031C38.811 7.7031 38.4616 7.7031 38.3062 7.7031V4.46259C38.3062 3.93424 38.039 3.66895 37.5055 3.66895C36.9714 3.66895 36.7052 3.93424 36.7052 4.46259V7.7031H35.594C35.1112 7.69131 34.8685 7.92603 34.8685 8.40693C34.8685 8.89325 35.1252 9.13306 35.6377 9.13306H36.7052V18.7396C36.7052 19.267 36.9641 19.5301 37.4835 19.5301C38.032 19.5301 38.3062 19.267 38.3062 18.7396V9.13434H39.3947C39.9209 9.13434 40.1842 8.89707 40.1842 8.41967C40.1842 7.94227 39.9065 7.7031 39.3514 7.7031Z"/>
        </mask>
        <path d="M39.3514 7.7031C38.811 7.7031 38.4616 7.7031 38.3062 7.7031V4.46259C38.3062 3.93424 38.039 3.66895 37.5055 3.66895C36.9714 3.66895 36.7052 3.93424 36.7052 4.46259V7.7031H35.594C35.1112 7.69131 34.8685 7.92603 34.8685 8.40693C34.8685 8.89325 35.1252 9.13306 35.6377 9.13306H36.7052V18.7396C36.7052 19.267 36.9641 19.5301 37.4835 19.5301C38.032 19.5301 38.3062 19.267 38.3062 18.7396V9.13434H39.3947C39.9209 9.13434 40.1842 8.89707 40.1842 8.41967C40.1842 7.94227 39.9065 7.7031 39.3514 7.7031Z"
              fill="black" stroke="black" stroke-width="0.636954" mask="url(#path-1-inside-1)"/>
        <mask id="path-2-inside-2" fill="white">
            <path d="M49.2344 8.36678C48.4526 7.65466 47.5124 7.29797 46.4172 7.29797C45.0513 7.29797 43.9624 7.83842 43.1509 8.92188V4.50556C43.1509 3.94886 42.8878 3.66956 42.3617 3.66956C41.8496 3.66956 41.5926 3.94886 41.5926 4.50333V18.7383C41.5926 19.2676 41.8493 19.5307 42.3617 19.5307C42.8878 19.5307 43.1509 19.2676 43.1509 18.7412V12.0388C43.1509 11.0121 43.4563 10.1945 44.0687 9.58145C44.6245 9.04322 45.293 8.77252 46.0755 8.77252C46.8573 8.77252 47.5201 9.04259 48.0605 9.58145C48.6586 10.1811 48.9571 10.9984 48.9571 12.0388V18.7412C48.9571 19.2676 49.2128 19.5307 49.7262 19.5307C50.2513 19.5307 50.5154 19.2676 50.5154 18.7412V11.3541C50.5157 10.1311 50.0886 9.13463 49.2344 8.36678Z"/>
        </mask>
        <path d="M49.2344 8.36678C48.4526 7.65466 47.5124 7.29797 46.4172 7.29797C45.0513 7.29797 43.9624 7.83842 43.1509 8.92188V4.50556C43.1509 3.94886 42.8878 3.66956 42.3617 3.66956C41.8496 3.66956 41.5926 3.94886 41.5926 4.50333V18.7383C41.5926 19.2676 41.8493 19.5307 42.3617 19.5307C42.8878 19.5307 43.1509 19.2676 43.1509 18.7412V12.0388C43.1509 11.0121 43.4563 10.1945 44.0687 9.58145C44.6245 9.04322 45.293 8.77252 46.0755 8.77252C46.8573 8.77252 47.5201 9.04259 48.0605 9.58145C48.6586 10.1811 48.9571 10.9984 48.9571 12.0388V18.7412C48.9571 19.2676 49.2128 19.5307 49.7262 19.5307C50.2513 19.5307 50.5154 19.2676 50.5154 18.7412V11.3541C50.5157 10.1311 50.0886 9.13463 49.2344 8.36678Z"
              fill="black" stroke="black" stroke-width="0.636954" mask="url(#path-2-inside-2)"/>
        <mask id="path-3-inside-3" fill="white">
            <path d="M62.277 12.5926C62.277 10.9566 61.8356 9.65752 60.9544 8.69604C60.071 7.73519 58.869 7.25525 57.3457 7.25525C55.7368 7.25525 54.4568 7.90908 53.504 9.22025C52.6205 10.4012 52.1804 11.8397 52.1804 13.5318C52.1804 15.2385 52.6288 16.6701 53.5253 17.822C54.5502 19.1335 55.9374 19.7854 57.6884 19.7854C59.5945 19.7854 61.0528 19.1456 62.0633 17.865C62.163 17.7516 62.2133 17.6093 62.2133 17.4379C62.2133 17.2395 62.1344 17.0542 61.9777 16.8835C61.8207 16.7134 61.6356 16.6271 61.421 16.6271C61.25 16.6271 60.9716 16.7854 60.5859 17.0981C60.0585 17.5086 59.6579 17.7889 59.3878 17.9303C58.8311 18.2437 58.2607 18.4 57.6757 18.4C56.7056 18.4 55.8463 17.9739 55.0967 17.1198C54.3476 16.2656 53.9734 15.3347 53.9734 14.3216H61.7213C62.0914 14.321 62.277 13.7439 62.277 12.5926ZM53.9734 12.6999C54.0014 11.4627 54.3651 10.4716 55.0651 9.733C55.7078 9.07694 56.4785 8.75178 57.3785 8.75178C58.2782 8.75178 59.034 9.07694 59.6483 9.733C60.3331 10.4594 60.6764 11.448 60.6764 12.6999H53.9734Z"/>
        </mask>
        <path d="M62.277 12.5926C62.277 10.9566 61.8356 9.65752 60.9544 8.69604C60.071 7.73519 58.869 7.25525 57.3457 7.25525C55.7368 7.25525 54.4568 7.90908 53.504 9.22025C52.6205 10.4012 52.1804 11.8397 52.1804 13.5318C52.1804 15.2385 52.6288 16.6701 53.5253 17.822C54.5502 19.1335 55.9374 19.7854 57.6884 19.7854C59.5945 19.7854 61.0528 19.1456 62.0633 17.865C62.163 17.7516 62.2133 17.6093 62.2133 17.4379C62.2133 17.2395 62.1344 17.0542 61.9777 16.8835C61.8207 16.7134 61.6356 16.6271 61.421 16.6271C61.25 16.6271 60.9716 16.7854 60.5859 17.0981C60.0585 17.5086 59.6579 17.7889 59.3878 17.9303C58.8311 18.2437 58.2607 18.4 57.6757 18.4C56.7056 18.4 55.8463 17.9739 55.0967 17.1198C54.3476 16.2656 53.9734 15.3347 53.9734 14.3216H61.7213C62.0914 14.321 62.277 13.7439 62.277 12.5926ZM53.9734 12.6999C54.0014 11.4627 54.3651 10.4716 55.0651 9.733C55.7078 9.07694 56.4785 8.75178 57.3785 8.75178C58.2782 8.75178 59.034 9.07694 59.6483 9.733C60.3331 10.4594 60.6764 11.448 60.6764 12.6999H53.9734Z"
              fill="black" stroke="black" stroke-width="0.636954" mask="url(#path-3-inside-3)"/>
        <mask id="path-4-inside-4" fill="white">
            <path d="M78.0716 8.26136C77.3044 7.59129 76.3779 7.25562 75.2989 7.25562C73.6884 7.25562 72.4374 7.93843 71.5428 9.30597C70.8023 7.93811 69.7252 7.25562 68.3166 7.25562C67.05 7.25562 66.0118 7.81805 65.2009 8.94131V8.1827C65.2153 7.56581 64.956 7.25562 64.422 7.25562C63.9032 7.25562 63.6426 7.56899 63.6426 8.1948V18.6979C63.6426 19.2246 63.9057 19.4877 64.4328 19.4877C64.9449 19.4877 65.2009 19.2218 65.2009 18.696V12.256C65.2009 11.2324 65.5134 10.4022 66.1392 9.77509C66.7099 9.2203 67.386 8.94099 68.1669 8.94099C68.851 8.94099 69.4278 9.16966 69.8975 9.627C70.4093 10.1388 70.6667 10.8385 70.6667 11.721V18.6953C70.6667 19.2211 70.9278 19.4861 71.4558 19.4861C71.9676 19.4861 72.2227 19.2259 72.2227 18.6969V12.2869C72.2227 11.2506 72.5454 10.4184 73.1842 9.79515C73.753 9.22667 74.4285 8.94131 75.2145 8.94131C75.8964 8.94131 76.4652 9.17826 76.9206 9.64578C77.4321 10.1595 77.6897 10.864 77.6897 11.7608V18.7195C77.6897 19.2332 77.9591 19.488 78.5009 19.488C79.027 19.488 79.2901 19.2313 79.2901 18.7167V11.0458C79.2897 9.90503 78.8856 8.97794 78.0716 8.26136Z"/>
        </mask>
        <path d="M78.0716 8.26136C77.3044 7.59129 76.3779 7.25562 75.2989 7.25562C73.6884 7.25562 72.4374 7.93843 71.5428 9.30597C70.8023 7.93811 69.7252 7.25562 68.3166 7.25562C67.05 7.25562 66.0118 7.81805 65.2009 8.94131V8.1827C65.2153 7.56581 64.956 7.25562 64.422 7.25562C63.9032 7.25562 63.6426 7.56899 63.6426 8.1948V18.6979C63.6426 19.2246 63.9057 19.4877 64.4328 19.4877C64.9449 19.4877 65.2009 19.2218 65.2009 18.696V12.256C65.2009 11.2324 65.5134 10.4022 66.1392 9.77509C66.7099 9.2203 67.386 8.94099 68.1669 8.94099C68.851 8.94099 69.4278 9.16966 69.8975 9.627C70.4093 10.1388 70.6667 10.8385 70.6667 11.721V18.6953C70.6667 19.2211 70.9278 19.4861 71.4558 19.4861C71.9676 19.4861 72.2227 19.2259 72.2227 18.6969V12.2869C72.2227 11.2506 72.5454 10.4184 73.1842 9.79515C73.753 9.22667 74.4285 8.94131 75.2145 8.94131C75.8964 8.94131 76.4652 9.17826 76.9206 9.64578C77.4321 10.1595 77.6897 10.864 77.6897 11.7608V18.7195C77.6897 19.2332 77.9591 19.488 78.5009 19.488C79.027 19.488 79.2901 19.2313 79.2901 18.7167V11.0458C79.2897 9.90503 78.8856 8.97794 78.0716 8.26136Z"
              fill="black" stroke="black" stroke-width="0.636954" mask="url(#path-4-inside-4)"/>
        <mask id="path-5-inside-5" fill="white">
            <path d="M91.0524 12.5926C91.0524 10.9566 90.6113 9.65752 89.7288 8.69604C88.8463 7.73519 87.6444 7.25525 86.1223 7.25525C84.5121 7.25525 83.2328 7.90908 82.2777 9.22025C81.3952 10.4012 80.9541 11.8397 80.9541 13.5318C80.9541 15.2385 81.4028 16.6701 82.3016 17.822C83.3233 19.1335 84.7118 19.7854 86.4625 19.7854C88.3686 19.7854 89.8262 19.1456 90.8374 17.865C90.9371 17.7516 90.9871 17.6093 90.9871 17.4379C90.9871 17.2395 90.9081 17.0542 90.7527 16.8835C90.5944 16.7134 90.4087 16.6271 90.196 16.6271C90.0231 16.6271 89.7463 16.7854 89.3597 17.0981C88.8329 17.5086 88.4323 17.7889 88.1622 17.9303C87.6074 18.2437 87.0348 18.4 86.4501 18.4C85.4781 18.4 84.6204 17.9739 83.8713 17.1198C83.1226 16.2656 82.7465 15.3347 82.7465 14.3216H90.4931C90.8657 14.321 91.0524 13.7439 91.0524 12.5926ZM82.7465 12.6999C82.7752 11.4627 83.1392 10.4716 83.8398 9.733C84.4831 9.07694 85.2523 8.75178 86.1529 8.75178C87.0542 8.75178 87.8103 9.07694 88.4221 9.733C89.1074 10.4594 89.4504 11.448 89.4504 12.6999H82.7465Z"/>
        </mask>
        <path d="M91.0524 12.5926C91.0524 10.9566 90.6113 9.65752 89.7288 8.69604C88.8463 7.73519 87.6444 7.25525 86.1223 7.25525C84.5121 7.25525 83.2328 7.90908 82.2777 9.22025C81.3952 10.4012 80.9541 11.8397 80.9541 13.5318C80.9541 15.2385 81.4028 16.6701 82.3016 17.822C83.3233 19.1335 84.7118 19.7854 86.4625 19.7854C88.3686 19.7854 89.8262 19.1456 90.8374 17.865C90.9371 17.7516 90.9871 17.6093 90.9871 17.4379C90.9871 17.2395 90.9081 17.0542 90.7527 16.8835C90.5944 16.7134 90.4087 16.6271 90.196 16.6271C90.0231 16.6271 89.7463 16.7854 89.3597 17.0981C88.8329 17.5086 88.4323 17.7889 88.1622 17.9303C87.6074 18.2437 87.0348 18.4 86.4501 18.4C85.4781 18.4 84.6204 17.9739 83.8713 17.1198C83.1226 16.2656 82.7465 15.3347 82.7465 14.3216H90.4931C90.8657 14.321 91.0524 13.7439 91.0524 12.5926ZM82.7465 12.6999C82.7752 11.4627 83.1392 10.4716 83.8398 9.733C84.4831 9.07694 85.2523 8.75178 86.1529 8.75178C87.0542 8.75178 87.8103 9.07694 88.4221 9.733C89.1074 10.4594 89.4504 11.448 89.4504 12.6999H82.7465Z"
              fill="black" stroke="black" stroke-width="0.636954" mask="url(#path-5-inside-5)"/>
        <mask id="path-6-inside-6" fill="white">
            <path d="M96.6863 3.66956H95.2983C94.1464 3.66956 93.5696 4.32562 93.5696 5.63265V7.68301H92.5661C91.983 7.68301 91.6922 7.95626 91.6922 8.505C91.6922 9.01042 91.983 9.2617 92.5661 9.2617H93.5696V18.7389C93.5696 19.2676 93.8251 19.5307 94.3388 19.5307C94.8649 19.5307 95.128 19.2676 95.128 18.7389V9.26074H96.4496C97.0627 9.26074 97.3694 8.99545 97.3694 8.46423C97.3694 7.94225 97.0777 7.68333 96.492 7.68333C95.8095 7.68333 95.3528 7.68333 95.1267 7.68333V6.18998C95.1267 5.6473 95.2474 5.3215 95.491 5.20621C95.6187 5.15175 96.0178 5.1234 96.6853 5.1234C97.3146 5.1234 97.6248 4.88678 97.6248 4.41734C97.6261 3.91861 97.3143 3.66956 96.6863 3.66956Z"/>
        </mask>
        <path d="M96.6863 3.66956H95.2983C94.1464 3.66956 93.5696 4.32562 93.5696 5.63265V7.68301H92.5661C91.983 7.68301 91.6922 7.95626 91.6922 8.505C91.6922 9.01042 91.983 9.2617 92.5661 9.2617H93.5696V18.7389C93.5696 19.2676 93.8251 19.5307 94.3388 19.5307C94.8649 19.5307 95.128 19.2676 95.128 18.7389V9.26074H96.4496C97.0627 9.26074 97.3694 8.99545 97.3694 8.46423C97.3694 7.94225 97.0777 7.68333 96.492 7.68333C95.8095 7.68333 95.3528 7.68333 95.1267 7.68333V6.18998C95.1267 5.6473 95.2474 5.3215 95.491 5.20621C95.6187 5.15175 96.0178 5.1234 96.6853 5.1234C97.3146 5.1234 97.6248 4.88678 97.6248 4.41734C97.6261 3.91861 97.3143 3.66956 96.6863 3.66956Z"
              fill="black" stroke="black" stroke-width="0.636954" mask="url(#path-6-inside-6)"/>
        <mask id="path-7-inside-7" fill="white">
            <path d="M103.199 7.27637C101.56 7.27637 100.263 7.92606 99.3121 9.22035C98.4599 10.3869 98.0328 11.8166 98.0328 13.5122C98.0328 15.2045 98.4599 16.6348 99.3121 17.803C100.263 19.1116 101.559 19.7661 103.199 19.7661C104.849 19.7661 106.144 19.1352 107.083 17.8657C107.936 16.7256 108.363 15.3256 108.363 13.6618C108.363 11.9405 107.93 10.4799 107.059 9.28468C106.093 7.94612 104.806 7.27637 103.199 7.27637ZM105.741 16.9479C105.13 17.9008 104.281 18.3782 103.188 18.3782C102.152 18.3782 101.315 17.8501 100.678 16.7972C100.109 15.8297 99.8274 14.6848 99.8274 13.3612C99.8274 12.0806 100.097 11.0115 100.635 10.1599C101.246 9.19042 102.097 8.70696 103.19 8.70696C104.212 8.70696 105.039 9.24073 105.678 10.3073C106.274 11.2889 106.572 12.4507 106.572 13.7886C106.571 15.0536 106.293 16.1077 105.741 16.9479Z"/>
        </mask>
        <path d="M103.199 7.27637C101.56 7.27637 100.263 7.92606 99.3121 9.22035C98.4599 10.3869 98.0328 11.8166 98.0328 13.5122C98.0328 15.2045 98.4599 16.6348 99.3121 17.803C100.263 19.1116 101.559 19.7661 103.199 19.7661C104.849 19.7661 106.144 19.1352 107.083 17.8657C107.936 16.7256 108.363 15.3256 108.363 13.6618C108.363 11.9405 107.93 10.4799 107.059 9.28468C106.093 7.94612 104.806 7.27637 103.199 7.27637ZM105.741 16.9479C105.13 17.9008 104.281 18.3782 103.188 18.3782C102.152 18.3782 101.315 17.8501 100.678 16.7972C100.109 15.8297 99.8274 14.6848 99.8274 13.3612C99.8274 12.0806 100.097 11.0115 100.635 10.1599C101.246 9.19042 102.097 8.70696 103.19 8.70696C104.212 8.70696 105.039 9.24073 105.678 10.3073C106.274 11.2889 106.572 12.4507 106.572 13.7886C106.571 15.0536 106.293 16.1077 105.741 16.9479Z"
              fill="black" stroke="black" stroke-width="0.636954" mask="url(#path-7-inside-7)"/>
        <mask id="path-8-inside-8" fill="white">
            <path d="M114.317 7.25623C113.452 7.25623 112.525 8.04541 111.543 9.62697V8.11102C111.543 7.54253 111.288 7.25686 110.776 7.25686C110.25 7.25686 109.985 7.554 109.985 8.15369V18.6997C109.985 19.2259 110.25 19.4893 110.776 19.4893C111.288 19.4893 111.543 19.2262 111.543 18.6972V13.0946C111.543 11.8404 111.885 10.899 112.57 10.2709C112.897 9.9722 113.516 9.65213 114.429 9.31009C115.11 9.05339 115.452 8.74542 115.452 8.38905C115.452 8.06133 115.341 7.79031 115.121 7.57852C114.899 7.36323 114.632 7.25623 114.317 7.25623Z"/>
        </mask>
        <path d="M114.317 7.25623C113.452 7.25623 112.525 8.04541 111.543 9.62697V8.11102C111.543 7.54253 111.288 7.25686 110.776 7.25686C110.25 7.25686 109.985 7.554 109.985 8.15369V18.6997C109.985 19.2259 110.25 19.4893 110.776 19.4893C111.288 19.4893 111.543 19.2262 111.543 18.6972V13.0946C111.543 11.8404 111.885 10.899 112.57 10.2709C112.897 9.9722 113.516 9.65213 114.429 9.31009C115.11 9.05339 115.452 8.74542 115.452 8.38905C115.452 8.06133 115.341 7.79031 115.121 7.57852C114.899 7.36323 114.632 7.25623 114.317 7.25623Z"
              fill="black" stroke="black" stroke-width="0.636954" mask="url(#path-8-inside-8)"/>
        <mask id="path-9-inside-9" fill="white">
            <path d="M125.695 12.5926C125.695 10.9566 125.254 9.65752 124.372 8.69604C123.49 7.73519 122.288 7.25525 120.767 7.25525C119.159 7.25525 117.876 7.90908 116.925 9.22025C116.043 10.4012 115.602 11.8397 115.602 13.5318C115.602 15.2385 116.049 16.6701 116.946 17.822C117.97 19.1335 119.358 19.7854 121.109 19.7854C123.015 19.7854 124.475 19.1456 125.485 17.865C125.584 17.7516 125.634 17.6093 125.634 17.4379C125.634 17.2395 125.555 17.0542 125.396 16.8835C125.24 16.7134 125.058 16.6271 124.842 16.6271C124.67 16.6271 124.393 16.7854 124.006 17.0981C123.477 17.5086 123.079 17.7889 122.808 17.9303C122.251 18.2437 121.681 18.4 121.096 18.4C120.127 18.4 119.266 17.9739 118.518 17.1198C117.767 16.2656 117.394 15.3347 117.394 14.3216H125.142C125.511 14.321 125.695 13.7439 125.695 12.5926ZM117.394 12.6999C117.423 11.4627 117.785 10.4716 118.484 9.733C119.127 9.07694 119.899 8.75178 120.799 8.75178C121.698 8.75178 122.454 9.07694 123.07 9.733C123.754 10.4594 124.097 11.448 124.097 12.6999H117.394Z"/>
        </mask>
        <path d="M125.695 12.5926C125.695 10.9566 125.254 9.65752 124.372 8.69604C123.49 7.73519 122.288 7.25525 120.767 7.25525C119.159 7.25525 117.876 7.90908 116.925 9.22025C116.043 10.4012 115.602 11.8397 115.602 13.5318C115.602 15.2385 116.049 16.6701 116.946 17.822C117.97 19.1335 119.358 19.7854 121.109 19.7854C123.015 19.7854 124.475 19.1456 125.485 17.865C125.584 17.7516 125.634 17.6093 125.634 17.4379C125.634 17.2395 125.555 17.0542 125.396 16.8835C125.24 16.7134 125.058 16.6271 124.842 16.6271C124.67 16.6271 124.393 16.7854 124.006 17.0981C123.477 17.5086 123.079 17.7889 122.808 17.9303C122.251 18.2437 121.681 18.4 121.096 18.4C120.127 18.4 119.266 17.9739 118.518 17.1198C117.767 16.2656 117.394 15.3347 117.394 14.3216H125.142C125.511 14.321 125.695 13.7439 125.695 12.5926ZM117.394 12.6999C117.423 11.4627 117.785 10.4716 118.484 9.733C119.127 9.07694 119.899 8.75178 120.799 8.75178C121.698 8.75178 122.454 9.07694 123.07 9.733C123.754 10.4594 124.097 11.448 124.097 12.6999H117.394Z"
              fill="black" stroke="black" stroke-width="0.636954" mask="url(#path-9-inside-9)"/>
        <mask id="path-10-inside-10" fill="white">
            <path d="M134.064 13.4347C133.737 13.2204 132.669 12.6945 130.863 11.8519C129.711 11.3225 129.132 10.8318 129.132 10.3767C129.132 9.36264 129.679 8.85721 130.778 8.85721C131.929 8.85721 133.075 9.22729 134.212 9.96392C134.386 10.0674 134.547 10.1158 134.704 10.1158C135.157 10.1158 135.386 9.83876 135.386 9.28429C135.386 8.98683 135.271 8.73779 135.044 8.53715C134.034 7.69764 132.761 7.27661 131.223 7.27661C130.126 7.27661 129.24 7.53267 128.556 8.04478C127.775 8.63014 127.382 9.4757 127.382 10.5865C127.382 11.5684 127.951 12.3939 129.09 13.0618C130.142 13.5477 131.203 14.029 132.271 14.5134C133.393 15.0535 133.955 15.6532 133.955 16.3058C133.955 17.5727 133.272 18.2064 131.906 18.2064C131.236 18.2064 130.546 18.0545 129.834 17.7488C129.123 17.4408 128.632 17.1058 128.362 16.7328C128.19 16.5054 128.006 16.3943 127.808 16.3943C127.607 16.3943 127.433 16.4978 127.284 16.7019C127.134 16.9083 127.061 17.1408 127.061 17.3965C127.061 17.6526 127.137 17.8736 127.296 18.0602C128.263 19.1835 129.65 19.7463 131.457 19.7463C132.652 19.7463 133.654 19.4469 134.466 18.8456C135.351 18.1752 135.792 17.2567 135.792 16.0879C135.794 15.0879 135.216 14.2035 134.064 13.4347Z"/>
        </mask>
        <path d="M134.064 13.4347C133.737 13.2204 132.669 12.6945 130.863 11.8519C129.711 11.3225 129.132 10.8318 129.132 10.3767C129.132 9.36264 129.679 8.85721 130.778 8.85721C131.929 8.85721 133.075 9.22729 134.212 9.96392C134.386 10.0674 134.547 10.1158 134.704 10.1158C135.157 10.1158 135.386 9.83876 135.386 9.28429C135.386 8.98683 135.271 8.73779 135.044 8.53715C134.034 7.69764 132.761 7.27661 131.223 7.27661C130.126 7.27661 129.24 7.53267 128.556 8.04478C127.775 8.63014 127.382 9.4757 127.382 10.5865C127.382 11.5684 127.951 12.3939 129.09 13.0618C130.142 13.5477 131.203 14.029 132.271 14.5134C133.393 15.0535 133.955 15.6532 133.955 16.3058C133.955 17.5727 133.272 18.2064 131.906 18.2064C131.236 18.2064 130.546 18.0545 129.834 17.7488C129.123 17.4408 128.632 17.1058 128.362 16.7328C128.19 16.5054 128.006 16.3943 127.808 16.3943C127.607 16.3943 127.433 16.4978 127.284 16.7019C127.134 16.9083 127.061 17.1408 127.061 17.3965C127.061 17.6526 127.137 17.8736 127.296 18.0602C128.263 19.1835 129.65 19.7463 131.457 19.7463C132.652 19.7463 133.654 19.4469 134.466 18.8456C135.351 18.1752 135.792 17.2567 135.792 16.0879C135.794 15.0879 135.216 14.2035 134.064 13.4347Z"
              fill="black" stroke="black" stroke-width="0.636954" mask="url(#path-10-inside-10)"/>
        <mask id="path-11-inside-11" fill="white">
            <path d="M141.664 7.7031C141.121 7.7031 140.773 7.7031 140.618 7.7031V4.46259C140.618 3.93424 140.352 3.66895 139.819 3.66895C139.284 3.66895 139.017 3.93424 139.017 4.46259V7.7031H137.908C137.421 7.69131 137.182 7.92603 137.182 8.40693C137.182 8.89325 137.438 9.13306 137.949 9.13306H139.017V18.7396C139.017 19.267 139.276 19.5301 139.796 19.5301C140.345 19.5301 140.619 19.267 140.619 18.7396V9.13434H141.708C142.235 9.13434 142.5 8.89707 142.5 8.41967C142.498 7.94196 142.218 7.7031 141.664 7.7031Z"/>
        </mask>
        <path d="M141.664 7.7031C141.121 7.7031 140.773 7.7031 140.618 7.7031V4.46259C140.618 3.93424 140.352 3.66895 139.819 3.66895C139.284 3.66895 139.017 3.93424 139.017 4.46259V7.7031H137.908C137.421 7.69131 137.182 7.92603 137.182 8.40693C137.182 8.89325 137.438 9.13306 137.949 9.13306H139.017V18.7396C139.017 19.267 139.276 19.5301 139.796 19.5301C140.345 19.5301 140.619 19.267 140.619 18.7396V9.13434H141.708C142.235 9.13434 142.5 8.89707 142.5 8.41967C142.498 7.94196 142.218 7.7031 141.664 7.7031Z"
              fill="black" stroke="black" stroke-width="0.636954" mask="url(#path-11-inside-11)"/>
        <mask id="path-12-inside-12" fill="white">
            <path d="M31.5558 13.6697C31.5504 13.663 31.5459 13.6611 31.5405 13.6525C30.9857 13.0605 30.1255 12.7971 28.7529 12.7971C28.2579 12.7971 27.5901 12.8315 26.935 12.9022L26.9439 1.85836C26.9439 0.994332 26.2429 0.291138 25.3776 0.291138H6.06582C5.20083 0.291138 4.50018 0.993697 4.50018 1.85868V21.1695C4.50018 22.0355 5.20051 22.7365 6.06582 22.7365H11.2497C11.3532 22.8957 11.4605 23.0517 11.5818 23.1995C12.95 24.8629 15.3431 25.7085 18.6941 25.7085C21.2483 25.7085 23.8875 25.2343 25.635 24.9215L26.2745 24.8072C28.3974 24.4397 29.5551 23.9709 30.2784 23.2027C30.5898 23.0855 30.9905 22.8775 31.1465 22.5575C31.2297 22.3852 31.2395 22.1973 31.1749 22.0243C31.1223 21.8839 31.0293 21.7727 30.9153 21.6823C30.9972 21.5664 31.0669 21.452 31.1265 21.3342C31.3806 21.2084 31.6418 21.0285 31.7602 20.7851C31.843 20.6157 31.8532 20.4249 31.7873 20.252C31.7198 20.0721 31.5828 19.9386 31.4169 19.8345C31.4106 19.7249 31.4026 19.6186 31.3886 19.5125C31.4271 19.4533 31.4615 19.395 31.4946 19.3367C31.8825 19.2007 32.4459 18.9377 32.6536 18.5106C32.7548 18.3045 32.7669 18.0746 32.687 17.8641C32.5475 17.4886 32.1717 17.2752 31.7762 17.1475C31.7851 17.0991 31.8032 17.052 31.844 17.0121C31.9313 16.8504 32.0545 16.6828 32.1574 16.5C32.6249 16.3246 33.2463 16.0096 33.4822 15.5233C33.6068 15.2698 33.6217 14.9879 33.5246 14.728C33.2485 13.9908 32.2345 13.7506 31.5558 13.6697ZM31.1459 16.4777L28.7484 16.8335L31.0488 17.0892C31.229 17.6411 31.3774 18.6759 30.4306 19.5625C30.4306 19.5625 30.4417 19.5864 30.4577 19.6275L28.5666 19.8781L30.5704 20.0724C30.6169 20.3877 30.6048 20.8027 30.3707 21.1915L28.7943 21.6508L30.0714 21.6164C30.0659 21.8651 29.8264 22.9234 26.157 23.5607C21.976 24.2865 10.249 26.8324 12.0662 17.6513C13.8857 8.46899 23.7031 4.47115 25.7022 4.47115V13.3108C24.6184 13.4831 23.6572 13.6713 22.811 13.8592C21.8731 13.7315 19.6419 13.4799 18.4766 13.8353L21.133 14.2787C18.7406 14.935 17.7033 15.5169 17.7033 15.5169C20.4842 14.7108 23.6091 14.2293 25.0601 14.0309C27.5274 13.7579 30.2503 13.9334 30.7933 14.5143C31.7243 15.5086 31.4271 16.1605 31.1459 16.4777Z"/>
        </mask>
        <path d="M31.5558 13.6697C31.5504 13.663 31.5459 13.6611 31.5405 13.6525C30.9857 13.0605 30.1255 12.7971 28.7529 12.7971C28.2579 12.7971 27.5901 12.8315 26.935 12.9022L26.9439 1.85836C26.9439 0.994332 26.2429 0.291138 25.3776 0.291138H6.06582C5.20083 0.291138 4.50018 0.993697 4.50018 1.85868V21.1695C4.50018 22.0355 5.20051 22.7365 6.06582 22.7365H11.2497C11.3532 22.8957 11.4605 23.0517 11.5818 23.1995C12.95 24.8629 15.3431 25.7085 18.6941 25.7085C21.2483 25.7085 23.8875 25.2343 25.635 24.9215L26.2745 24.8072C28.3974 24.4397 29.5551 23.9709 30.2784 23.2027C30.5898 23.0855 30.9905 22.8775 31.1465 22.5575C31.2297 22.3852 31.2395 22.1973 31.1749 22.0243C31.1223 21.8839 31.0293 21.7727 30.9153 21.6823C30.9972 21.5664 31.0669 21.452 31.1265 21.3342C31.3806 21.2084 31.6418 21.0285 31.7602 20.7851C31.843 20.6157 31.8532 20.4249 31.7873 20.252C31.7198 20.0721 31.5828 19.9386 31.4169 19.8345C31.4106 19.7249 31.4026 19.6186 31.3886 19.5125C31.4271 19.4533 31.4615 19.395 31.4946 19.3367C31.8825 19.2007 32.4459 18.9377 32.6536 18.5106C32.7548 18.3045 32.7669 18.0746 32.687 17.8641C32.5475 17.4886 32.1717 17.2752 31.7762 17.1475C31.7851 17.0991 31.8032 17.052 31.844 17.0121C31.9313 16.8504 32.0545 16.6828 32.1574 16.5C32.6249 16.3246 33.2463 16.0096 33.4822 15.5233C33.6068 15.2698 33.6217 14.9879 33.5246 14.728C33.2485 13.9908 32.2345 13.7506 31.5558 13.6697ZM31.1459 16.4777L28.7484 16.8335L31.0488 17.0892C31.229 17.6411 31.3774 18.6759 30.4306 19.5625C30.4306 19.5625 30.4417 19.5864 30.4577 19.6275L28.5666 19.8781L30.5704 20.0724C30.6169 20.3877 30.6048 20.8027 30.3707 21.1915L28.7943 21.6508L30.0714 21.6164C30.0659 21.8651 29.8264 22.9234 26.157 23.5607C21.976 24.2865 10.249 26.8324 12.0662 17.6513C13.8857 8.46899 23.7031 4.47115 25.7022 4.47115V13.3108C24.6184 13.4831 23.6572 13.6713 22.811 13.8592C21.8731 13.7315 19.6419 13.4799 18.4766 13.8353L21.133 14.2787C18.7406 14.935 17.7033 15.5169 17.7033 15.5169C20.4842 14.7108 23.6091 14.2293 25.0601 14.0309C27.5274 13.7579 30.2503 13.9334 30.7933 14.5143C31.7243 15.5086 31.4271 16.1605 31.1459 16.4777Z"
              fill="black" stroke="black" stroke-width="0.636954" mask="url(#path-12-inside-12)"/>
    </g>
    <defs>
        <filter id="filter0_d" x="0" y="0" width="147" height="34" filterUnits="userSpaceOnUse"
                color-interpolation-filters="sRGB">
            <feFlood flood-opacity="0" result="BackgroundImageFix"/>
            <feColorMatrix in="SourceAlpha" type="matrix" values="0 0 0 0 0 0 0 0 0 0 0 0 0 0 0 0 0 0 127 0"/>
            <feOffset dy="4"/>
            <feGaussianBlur stdDeviation="2"/>
            <feColorMatrix type="matrix" values="0 0 0 0 0 0 0 0 0 0 0 0 0 0 0 0 0 0 0.25 0"/>
            <feBlend mode="normal" in2="BackgroundImageFix" result="effect1_dropShadow"/>
            <feBlend mode="normal" in="SourceGraphic" in2="effect1_dropShadow" result="shape"/>
        </filter>
    </defs>
</svg>
