<svg width="199" height="38" viewBox="0 0 199 38" fill="none" xmlns="http://www.w3.org/2000/svg">
<path fill-rule="evenodd" clip-rule="evenodd" d="M54.0183 9.82636C53.05 9.92267 49.0167 10.8265 47.662 11.1165C46.211 11.5028 32.9501 21.7453 32.0791 24.2631C31.8854 25.133 31.7891 26.4729 31.7891 27.7312L31.6928 29.7632C31.6928 31.2163 32.095 33.5542 32.2887 34.8125C33.1597 35.0073 39.4694 34.8369 40.6304 35.0295L40.4865 37.6298C39.353 37.5494 31.3404 37.5674 26.7631 37.5674C24.4401 37.5674 16.9704 37.8235 14.6759 37.7536L15.1088 35.2793C16.3671 35.1819 21.5783 35.5047 22.7235 34.295C23.2918 33.696 23.1097 33.0525 23.1097 29.5695V27.9238C23.1097 27.1491 23.1097 25.6971 22.9171 24.3414C22.4324 22.8904 10.7527 8.3066 7.75229 5.98356C6.88128 5.69358 1.4224 5.14748 0.0666749 4.85749L0 2.62971C0.676274 2.2921 6.74687 2.71331 12.6386 2.4953C16.51 2.35242 25.3439 2.4953 26.435 2.62547L26.1556 4.5908C24.9946 4.88078 19.4003 4.98767 17.9493 5.37502C21.7233 10.9874 27.6923 18.2147 29.6291 21.0225C30.6927 19.4741 40.0505 13.0363 40.3405 10.8106C38.8884 10.5206 34.0804 9.82636 33.3068 9.82636L32.8464 7.29272C34.1651 7.08634 41.094 7.29272 44.5378 7.29272C47.5117 7.29272 53.8638 7.29272 55.6704 7.44089L54.0183 9.82636Z" fill="#CF4044"/>
<path fill-rule="evenodd" clip-rule="evenodd" d="M74.0209 36.5481C73.5944 36.4878 68.7451 36.4878 66.9756 36.4878C65.9395 36.4878 60.6553 36.4571 59.7398 36.4571L60.015 34.1912C61.2352 34.1288 63.5064 33.6377 64.5425 33.5149C63.8715 31.9899 61.6575 27.1459 61.1696 26.2325C59.889 26.2325 55.281 26.3775 53.9994 26.6209C53.756 27.0464 52.0066 28.762 51.7018 31.0818C52.5558 31.2639 54.1941 31.6173 55.171 31.7391L54.8111 34.0547C53.774 33.9944 49.637 34.1171 48.6612 34.0547C47.7457 34.0547 43.4954 34.0653 42.7028 34.187L43.4574 31.7401C44.4331 31.6184 46.6821 30.9199 47.5362 30.7358C48.8167 28.9059 54.7508 17.3076 55.2387 16.2101C54.445 16.027 53.0966 15.3899 52.2426 15.2671L52.1251 13.5918C53.1623 13.6532 58.3185 13.8077 58.8667 13.7802C60.0933 13.7199 64.6462 13.7431 65.6834 13.6818L65.2992 15.3275C64.3848 15.3888 62.8957 15.8344 62.0417 16.0164C62.4682 17.2981 64.1679 21.4288 65.4484 24.4778C66.4242 26.6749 68.0445 30.9792 69.5696 33.48C70.6068 33.6642 72.9869 34.3627 74.0844 34.423L74.1448 35.0326L74.0209 36.5481ZM58.0655 17.1436L58.0041 16.7594C56.9056 19.3216 55.0419 23.3486 54.6746 24.3233L60.6838 24.3212C59.7789 21.9405 58.906 19.5478 58.0655 17.1436Z" fill="#CF4044"/>
<path fill-rule="evenodd" clip-rule="evenodd" d="M109.754 30.2701C108.915 30.2056 104.866 30.2119 102.795 30.2701C101.135 30.3178 97.192 30.1188 95.3135 30.2024L95.1685 27.9016C95.8162 27.837 99.8548 27.5629 100.633 27.4327C100.891 26.203 100.767 24.4578 100.767 22.9719L100.668 20.2636C98.5954 20.2636 84.9058 20.9748 84.3238 21.0404L83.3236 21.1685C83.3236 24.8578 83.5173 26.0241 83.7766 27.3841C84.8773 27.5767 88.8259 27.837 89.6662 27.9651L89.6154 30.4723C88.6449 30.4077 82.5712 30.4723 80.6947 30.4723C78.4289 30.4723 72.9202 30.4247 71.627 30.4892L71.8016 27.9016C72.8377 27.837 76.7525 27.4507 77.5949 27.3206C77.724 25.6378 77.7896 22.9835 77.7896 20.2012V16.77C77.7896 15.6048 77.724 12.2393 77.6594 11.0741C76.8181 10.945 72.9022 10.6836 71.737 10.619L71.5306 8.66002C72.3064 8.72564 77.7113 8.57641 80.5593 8.57641C83.2136 8.57641 89.2302 8.62933 89.9424 8.56371L89.7308 10.619C88.501 10.6836 84.4232 11.0074 83.711 11.1365C83.5163 12.1081 83.3226 12.9494 83.3226 16.0557L83.2263 17.676C84.3915 17.676 98.8324 17.6188 100.631 17.3627V15.1328C100.631 12.2848 101.073 9.20612 100.748 8.36369C100.037 8.17001 96.1771 7.62709 94.9473 7.56147L95.1198 5.49454C95.8956 5.56016 99.5331 5.53794 102.251 5.60249C105.099 5.60249 109.238 5.71997 110.08 5.59085L109.888 7.2916C109.046 7.35721 105.292 8.30548 105.292 8.30548C105.292 8.30548 105.036 10.0792 105.225 12.6309C105.379 14.7497 105.427 18.9153 105.427 18.9153C105.535 23.5561 105.822 27.3057 105.561 27.4994C105.251 27.7333 108.534 27.9312 109.439 28.0614L109.795 28.6773L109.754 30.2701ZM143.142 19.4582C143.45 27.3629 136.232 31.2861 126.855 31.2861C122.952 31.2861 118.202 30.5421 114.149 28.109C110.984 26.2114 110.461 23.7476 110.461 20.6679C110.461 14.3031 117.392 9.0262 128 9.09393C132.039 9.09393 135.931 9.70883 139.078 12.1631C141.884 14.3517 142.358 15.4397 142.871 17.8358L143.142 19.4582ZM137.939 19.999C138.173 13.4564 133.053 11.7144 126.584 12.1589C123.198 12.3906 116.311 14.1813 116.311 19.999C116.311 25.7479 121.594 28.8604 128.645 28.2466C134.099 27.7714 136.964 25.7638 137.667 22.9719L137.939 19.999ZM190.459 24.1805L186.269 23.773C186.707 21.6542 186.325 5.38448 186.291 3.64881L186.076 0.231445C187.242 0.462162 187.067 0.341514 191.992 0.85904C194.991 1.17442 195.382 1.30777 196.368 1.34693L195.08 5.39929C193.981 8.64203 190.795 23.0978 190.459 24.1805ZM187.565 32.7742L185.32 32.5794L185.298 27.7153L188.141 28.0709L190.687 28.1884L189.982 32.9509L187.565 32.7742ZM182.449 16.2451C183.003 23.6471 174.46 29.7971 163.755 29.7971C159.3 29.7971 155.509 29.2573 151.117 26.3511C147.504 23.9614 145.778 21.8902 145.327 17.8125C144.527 10.5894 153.24 4.52088 165.351 4.5992C169.96 4.5992 174.405 5.30087 177.997 8.10334C181.2 10.6021 181.763 12.9738 182.345 15.7096L182.449 16.2451ZM176.865 17.295C177.31 10.1861 170.461 7.59639 163.078 8.10334C159.216 8.36792 151.995 10.6529 151.995 17.295C151.995 23.8588 158.037 27.1682 166.085 26.4654C172.313 25.9236 174.905 23.5794 176.326 20.4044C176.326 20.4044 176.731 19.4582 176.865 17.295ZM195.626 28.2328C196.917 28.2328 198.001 29.2541 198.001 30.6077C198.003 30.92 197.942 31.2294 197.824 31.5181C197.705 31.8068 197.53 32.0691 197.309 32.2898C197.088 32.5104 196.826 32.6851 196.537 32.8037C196.248 32.9222 195.939 32.9824 195.626 32.9805C195.314 32.9829 195.004 32.9232 194.715 32.8048C194.426 32.6865 194.164 32.5118 193.943 32.291C193.722 32.0702 193.547 31.8077 193.428 31.5188C193.309 31.2298 193.249 30.9201 193.252 30.6077C193.249 30.2952 193.309 29.9853 193.427 29.6961C193.546 29.4069 193.721 29.1441 193.942 28.9231C194.163 28.7021 194.426 28.5272 194.715 28.4087C195.004 28.2902 195.314 28.2304 195.626 28.2328ZM195.626 32.6376C196.711 32.6376 197.58 31.7571 197.58 30.6077C197.58 29.4584 196.712 28.5779 195.626 28.5779C194.535 28.5779 193.673 29.4584 193.673 30.6077C193.673 31.7571 194.534 32.6376 195.626 32.6376ZM194.718 29.2139H195.766C196.423 29.2139 196.736 29.4764 196.736 30.0056C196.736 30.5104 196.417 30.721 196.002 30.7665L196.8 31.992H196.347L195.595 30.7972H195.14V31.992H194.718V29.2139ZM195.141 30.4543H195.575C195.95 30.4543 196.316 30.4331 196.316 29.9876C196.316 29.6055 195.984 29.56 195.696 29.56H195.141V30.4543Z" fill="#CF4044"/>
</svg>
